<?xml version="1.0" standalone="no"?>
<!DOCTYPE svg PUBLIC "-//W3C//DTD SVG 20010904//EN"
 "http://www.w3.org/TR/2001/REC-SVG-20010904/DTD/svg10.dtd">
<svg version="1.0" xmlns="http://www.w3.org/2000/svg"
 width="719.000000pt" height="719.000000pt" viewBox="0 0 719.000000 719.000000"
 preserveAspectRatio="xMidYMid meet">
<metadata>
Created by potrace 1.11, written by Peter Selinger 2001-2013
</metadata>
<g transform="translate(0.000000,719.000000) scale(0.100000,-0.100000)"
fill="#000000" stroke="none">
<path d="M99 5541 l-29 -29 0 -1922 0 -1922 29 -29 c29 -29 30 -29 151 -29
121 0 122 0 151 29 l29 29 0 1922 0 1922 -29 29 c-29 29 -30 29 -151 29 -121
0 -122 0 -151 -29z"/>
<path d="M6165 5514 c-60 -31 -118 -63 -127 -72 -43 -37 -37 -63 95 -399 69
-175 169 -428 221 -563 53 -135 101 -254 106 -265 4 -11 45 -114 90 -230 45
-115 95 -242 111 -282 16 -39 29 -89 29 -110 0 -31 -97 -312 -141 -408 -5 -11
-54 -139 -109 -285 -105 -276 -121 -317 -188 -490 -22 -58 -77 -202 -122 -320
-44 -118 -88 -230 -96 -248 -15 -32 -15 -70 1 -106 8 -19 193 -112 243 -122
46 -9 79 11 107 66 14 27 26 53 26 57 2 12 292 736 606 1513 64 157 118 304
120 328 3 24 -1 57 -7 75 -19 47 -36 88 -50 122 -7 17 -21 50 -30 75 -27 70
-200 503 -210 525 -14 31 -45 107 -250 620 -106 264 -201 497 -212 518 -18 36
-50 57 -86 57 -9 0 -66 -26 -127 -56z"/>
<path d="M803 5011 c-26 -12 -52 -35 -70 -62 l-28 -43 -3 -1295 c-2 -901 0
-1307 8 -1333 15 -52 53 -94 103 -113 39 -15 120 -16 823 -12 428 2 795 7 814
11 82 18 205 58 253 83 165 83 380 287 469 443 51 91 107 259 124 375 10 66
12 978 3 1030 -4 22 -9 54 -12 70 -33 199 -114 361 -256 510 -199 209 -320
282 -566 341 -16 4 -388 9 -825 11 -768 3 -796 2 -837 -16z m1517 -554 c113
-41 208 -110 288 -212 49 -62 104 -205 126 -327 23 -122 28 -170 30 -308 6
-276 -37 -478 -129 -615 -78 -115 -158 -182 -306 -256 -9 -4 -36 -13 -60 -19
-24 -7 -53 -15 -64 -18 -11 -3 -219 -7 -463 -9 l-442 -4 -30 30 -30 29 0 842
0 842 30 29 30 30 472 -3 473 -4 75 -27z"/>
<path d="M3685 5014 c-47 -25 -66 -46 -86 -89 -18 -38 -19 -100 -19 -1335 0
-1239 1 -1297 19 -1336 22 -47 59 -80 110 -95 41 -12 1563 -7 1621 5 225 50
345 115 522 284 174 167 265 325 307 532 6 30 13 69 17 85 10 45 12 957 2
1027 -35 255 -109 417 -267 583 -199 209 -320 282 -566 341 -16 4 -390 9 -830
11 -721 3 -803 1 -830 -13z m1514 -556 c307 -111 446 -390 445 -893 -1 -326
-61 -519 -207 -668 -61 -63 -126 -109 -203 -144 -123 -56 -125 -56 -607 -60
l-447 -4 -30 30 -30 29 0 842 0 842 30 29 30 30 472 -3 473 -4 74 -26z"/>
</g>
</svg>
